<?xml version="1.0" encoding="UTF-8" standalone="no"?>
<svg width="150px" height="147px" viewBox="0 0 150 147" version="1.1" xmlns="http://www.w3.org/2000/svg" xmlns:xlink="http://www.w3.org/1999/xlink">
    <!-- Generator: Sketch 49.3 (51167) - http://www.bohemiancoding.com/sketch -->
    <desc>Created with Sketch.</desc>
    <defs></defs>
    <g id="Page-1" stroke="none" stroke-width="1" fill="none" fill-rule="evenodd">
        <g id="p2bp" fill="#345FA8" fill-rule="nonzero">
            <path d="M148.876706,58.5998475 C145.436675,42.167716 133.936428,28.5813226 118.298199,22.4743967 C116.110672,23.6775367 111.313737,26.2088183 106.610553,28.1619677 C102.751789,29.7499503 98.5416504,30.2890205 94.407276,29.7244872 C95.4385744,30.9542751 96.5729099,32.093838 97.7979433,33.1307797 C101.15736,36.2558187 102.172998,43.2090304 102.172998,43.2090304 C100.989561,43.5122172 99.7896416,43.7469839 98.579203,43.9121642 C86.6571793,44.4434208 71.0944851,35.8651888 71.0944851,35.8651888 C67.7350682,35.6933117 61.2818626,38.4277208 55.9692964,40.7246244 C50.6567301,43.0215281 39.3284637,43.8496634 39.3284637,43.8496634 C40.5246269,40.735904 42.0048472,37.7388501 43.7503939,34.8964267 C46.5004282,30.6463737 50.0004719,25.865064 50.0004719,25.865064 C46.0941731,24.1619178 42.2972508,19.7556128 40.4847281,17.443084 C10.0468484,27.1307048 -6.98461414,60.9748771 2.73425712,92.5533961 C13.5119579,127.501655 47.6482436,149.821534 83.9852709,145.679059 C140.345349,139.382105 154.439275,83.1314036 148.876706,58.5998475 Z" id="Shape"></path>
            <path d="M59.4537148,24.0837918 C56.1411735,26.7557001 47.9066958,37.0995792 47.9066958,37.0995792 C47.9066958,37.0995792 55.3286634,34.8495511 57.6724426,33.7557875 C67.0475596,29.4432337 72.7351305,29.5994856 72.7351305,29.5994856 C79.4918453,33.1317461 86.6397901,35.8587683 94.0322713,37.724587 C92.9853832,34.3339197 90.7509803,34.9745527 87.7821933,28.2088433 C86.1259226,24.4431713 90.0947221,24.9900531 96.5010521,24.9119271 C106.657429,24.7556752 120.313849,14.9118024 120.313849,14.9118024 C115.251286,13.5524104 106.110547,19.8181136 99.860469,19.5993609 C94.4651006,19.1740139 89.1105978,18.3329652 83.8446442,17.0837045 C79.6727171,14.9743031 80.7196052,7.22420645 81.6102413,3.48978485 C81.9394619,2.07088635 81.0919634,0.644608396 79.6883423,0.255369497 C78.0074747,-0.0851254094 76.2753964,-0.0851254094 74.5945287,0.255369497 C74.0965694,0.337691681 73.6342965,0.566108877 73.2663872,0.911627685 C68.2506996,5.84918929 69.3444632,15.6930621 69.3444632,15.6930621 C69.6284991,18.7448348 72.083584,21.1403624 75.1414106,21.3493827 C80.4539769,21.7556378 82.0477467,20.0212411 82.0477467,20.0212411 C82.0477467,20.0212411 79.2820872,25.4275586 71.1101103,23.1462801 C67.9850713,22.2712692 66.0944227,19.4587341 64.9694086,16.161818 L59.9537211,16.7868258 C50.0473475,16.0993172 40.5316037,4.13041785 40.5316037,4.13041785 C42.8191552,13.6855565 50.0332946,21.2928694 59.4537148,24.0837918 Z" id="Shape"></path>
        </g>
    </g>
</svg>